# xmcd
#
# Track frame offsets:
# 150
# 25001
# 45819
# 63857
# 85002
# 109498
# 126422
# 153014
#
# Disc length: 2329 seconds
#
#
# Revision: 0
# Processed by: cddbd v1.5.2PL0 Copyright (c) Steve Scherf et al.
# Submitted via: FreeRIP 2.945 
#
DISCID=55091708
DTITLE=One Way - Love Is
DYEAR=1900
DGENRE=Soul
TTITLE0=Love Is
TTITLE1=My Lady
TTITLE2=All Over Again
TTITLE3=Get It Over
TTITLE4=Push
TTITLE5=I Didn't Mean To Break Your Heart
TTITLE6=Be Serious
TTITLE7=Wait Until Tomorrow
EXTD=
EXTT0=
EXTT1=
EXTT2=
EXTT3=
EXTT4=
EXTT5=
EXTT6=
EXTT7=
PLAYORDER=
